<svg width="700" height="846" viewBox="0 0 700 846" fill="none" xmlns="http://www.w3.org/2000/svg">
<g clip-path="url(#clip0_4_34)">
<path d="M162.883 801.383L479.479 800.543L479.069 830.835C371.214 854.556 267.993 847.274 162.473 829.155L162.883 801.383Z" fill="#E0C08F" stroke="black"/>
<path d="M138.529 287.126L215.067 255.034C237.062 139.646 227.927 26.485 321.506 24.646C392.095 23.2581 406.506 61.6557 429.617 250.282L508.48 276.411L492.244 790.669L478.327 806.109C373.177 820.825 268.027 825.201 162.878 798.983L150.116 778.797L138.529 287.126Z" fill="white" stroke="black"/>
<path d="M204.513 731.913C233.601 729.188 257.301 649.667 241.824 647.512L409.117 648.771C409.919 679.365 412.084 709.904 446.841 736.532L443.56 779.783C367.493 797.665 289.721 792.892 211.484 781.883L204.513 731.913Z" fill="white" stroke="black"/>
<path d="M78.7137 396.568C48.0699 453.039 20.0355 511.847 13.7683 590.16C44.9739 655.293 55.4049 739.772 116.986 776.625L137.861 802.754L205.125 758.811L198.167 730.306C201.496 706.277 183.322 649.31 165.61 625.619C161.147 598.634 162.354 602 150.616 575.906C167.639 565.879 170.582 553.449 169.172 540.276L139.599 284.923C108.002 292.551 92.0392 355.976 78.7124 396.564L78.7137 396.568Z" fill="white" stroke="black"/>
<path d="M594.316 399.96C624.96 456.431 628.64 590.063 634.907 668.376C603.701 733.51 617.626 743.163 556.043 780.017L535.164 806.156L467.913 762.192L474.862 733.692C471.533 709.663 489.707 652.696 507.419 629.005C511.882 602.02 502.557 599.447 514.294 573.353C497.271 563.326 498.387 555.052 499.798 541.879C503.857 455.376 492.196 349.807 510.235 277.62C541.832 285.248 580.99 359.365 594.317 399.953L594.316 399.96Z" fill="white" stroke="black"/>
<path d="M121.058 780.233C143.274 747.432 169.501 732.492 198.275 729.918L206.818 758.347L137.391 805.303L121.058 780.233Z" fill="#E0C08F" stroke="black"/>
<path d="M553.595 783.592C531.379 750.79 505.152 735.851 476.378 733.277L467.835 761.706L537.262 808.662L553.595 783.592Z" fill="#E0C08F" stroke="black"/>
<path d="M304.886 61.8551L297.658 29.0077C317.536 22.8445 334.895 26.8291 349.365 28.312L339.677 62.2622C330.7 62.0011 325.373 63.1872 304.886 61.8546L304.886 61.8551Z" fill="white" stroke="black"/>
<path d="M402.077 157.996C403.319 198.294 386.044 277.149 329.332 279.021C263.539 281.194 239.902 229.548 239.902 189.229C239.902 81.6653 279.577 57.2993 318.466 59.2946C357.307 61.2865 399.882 86.7594 402.077 157.996Z" fill="#E0C08F" stroke="black"/>
<path d="M269.004 76.7535C251.206 94.7795 238.764 128.921 238.764 189.196C238.764 208.053 243.881 229.415 256.116 246.561L257.537 246.665C251.1 185.036 252.998 127.315 269.714 76.7509H269.004L269.004 76.7535Z" fill="white" stroke="black"/>
<path d="M370.026 79.1679C386.1 127.807 388.471 183.03 382.918 242.015C397.661 215.511 402.791 180.716 402.077 158.046C400.908 119.563 387.919 94.4553 370.124 79.1679H370.026Z" fill="white" stroke="black"/>
</g>
<defs>
<clipPath id="clip0_4_34">
<rect width="700" height="846" fill="white"/>
</clipPath>
</defs>
</svg>
