<svg width="879" height="859" viewBox="0 0 879 859" fill="none" xmlns="http://www.w3.org/2000/svg">
<g id="1532850809 1" clip-path="url(#clip0_3_16)">
<g id="layer1">
<path id="tshirtBody" d="M330.707 0L227.399 40.8572C227.399 40.8572 43.8581 222.318 12.0051 252.367C48.1915 308.501 103.523 381.647 103.523 381.647L210.977 300.83C210.977 300.83 210.977 355.966 210.977 444.716C210.977 533.466 210.977 845.102 210.977 845.102H442.277H447.499H678.799C678.799 845.102 678.799 534.989 678.799 444.716C678.799 354.444 678.799 300.83 678.799 300.83L786.253 381.647C786.253 381.647 841.585 308.501 877.771 252.367C845.918 222.318 662.377 40.8572 662.377 40.8572L559.069 0H447.499H442.277H330.707Z" fill="#4E4040" stroke="#1B0B0B" stroke-width="7.09417" stroke-linecap="round" stroke-linejoin="round"/>
<path id="path4496-7" d="M37.1815 229.494C36.6472 230.014 35.926 230.719 35.4042 231.227L125.034 365.579L127.816 363.891C123.2 356.65 54.5919 254.151 37.1815 229.494Z" fill="#1B0B0B"/>
<path id="path4496-6" d="M845.604 229.494C830.868 249.791 760.951 353.957 754.475 364.115L757.263 365.805L847.292 231.179C846.779 230.669 846.128 230.015 845.604 229.494Z" fill="#1B0B0B"/>
<path id="path4538-6" d="M306.543 0C306.543 87.1962 350.537 149.566 419.984 149.239C489.431 148.912 534.166 91.8066 534.166 0" stroke="#1B0B0B" stroke-width="7.50043"/>
<path id="path4729" d="M313.493 15.4323H535.753" stroke="#1B0B0B" stroke-width="0.793796"/>
<path id="path4746" d="M555.509 8.17122C555.509 8.17122 560.463 168.95 422.154 168.95C283.844 168.95 288.304 7.13397 288.304 7.13397" stroke="#1B0B0B" stroke-width="0.793796"/>
</g>
</g>
<defs>
<clipPath id="clip0_3_16">
<rect width="879" height="859" fill="white"/>
</clipPath>
</defs>
</svg>
