<svg width="1070" height="587" viewBox="0 0 1070 587" fill="none" xmlns="http://www.w3.org/2000/svg">
<g id="mug-design">
<rect id="mug-ortho" x="1.5" y="1.5" width="1067" height="407" fill="#F3F3F3" stroke="black" stroke-width="3"/>
<path id="Line 1" d="M534.939 457.061C535.525 457.646 536.475 457.646 537.061 457.061L546.607 447.515C547.192 446.929 547.192 445.979 546.607 445.393C546.021 444.808 545.071 444.808 544.485 445.393L536 453.879L527.515 445.393C526.929 444.808 525.979 444.808 525.393 445.393C524.808 445.979 524.808 446.929 525.393 447.515L534.939 457.061ZM534.5 388L534.5 456L537.5 456L537.5 388L534.5 388Z" fill="#999999"/>
<g id="mug1">
<g id="Group">
<path id="Vector" d="M130.848 468.733C146.4 469.65 154.047 470.934 155.958 472.899L156.572 473.528V519.666C156.572 570.808 156.714 566.564 154.967 568.084C151.852 570.835 147.061 572.276 137.456 573.35C123.579 574.922 108.357 574.712 98.3272 572.826C93.2768 571.883 86.1496 569.394 85.3 568.267C85.1348 568.057 84.946 565.228 84.7808 560.748L84.5212 553.595L82.2556 551.027C81.0048 549.613 77.6536 546.364 74.798 543.822C67.4584 537.325 63.7296 533.709 59.93 529.491C51.6228 520.269 49.428 515.264 49.7348 506.33C49.9472 500.252 51.3632 496.296 54.738 492.523C56.3192 490.741 56.98 490.191 58.868 489.195C62.0304 487.519 64.0364 487.073 68.662 487.073C74.2788 487.099 78.928 488.226 81.76 490.322L82.822 491.108L82.94 482.305L83.058 473.502L83.7896 472.794C85.3236 471.248 91.6484 469.991 102.41 469.1C105.572 468.812 127.662 468.55 130.848 468.733ZM101.82 471.17C94.976 471.72 89.7604 472.532 88.014 473.318L87.306 473.606L88.132 473.999C93.4184 476.488 123.65 477.484 141.421 475.781C146.094 475.309 150.625 474.523 151.545 473.973C152.135 473.633 152.159 473.606 151.71 473.344C150.106 472.375 141.728 471.353 131.32 470.829C127.709 470.646 105.124 470.908 101.82 471.17ZM152.867 473.475C152.938 474.445 151.923 475.047 149.091 475.624C143.45 476.829 137.503 477.248 123.532 477.405C107.508 477.589 96.6044 477.012 90.3976 475.624C87.07 474.864 85.9844 474.13 86.7396 473.109C87.0228 472.742 86.9992 472.716 86.48 472.899C86.1496 473.004 85.5124 473.292 85.0876 473.554L84.2616 473.999L85.0404 474.445C87.0228 475.598 92.734 476.646 101.112 477.405C107.531 477.982 130.588 478.06 136.748 477.536C147.628 476.619 155.014 475.152 154.967 473.947C154.967 473.764 153.693 473.056 152.867 472.794C152.843 472.768 152.843 473.082 152.867 473.475ZM84.9224 491.868C86.834 494.042 87.778 497.448 87.7544 501.981C87.7544 505.125 87.5892 506.199 86.6688 508.976C86.244 510.339 86.1024 510.496 85.3708 510.653L84.5448 510.837L84.6864 516.627C84.7572 519.797 84.8988 525.64 84.9696 529.596L85.1348 536.801L86.244 538.006C88.1792 540.102 89.0996 544.294 88.6276 548.722C88.1556 552.94 87.3532 554.905 86.244 554.591C85.7248 554.433 85.7248 554.46 85.8664 557.027C85.9372 558.442 86.0788 561.35 86.1496 563.472L86.2912 567.298L87.8724 568.11C96.0144 572.249 111.614 573.874 130.494 572.564C143.993 571.621 151.144 569.891 154.33 566.8L155.156 565.988V520.924C155.156 478.637 155.132 475.86 154.755 476.017C152.702 476.908 148.052 477.798 142.648 478.375C122.871 480.497 93.7488 479.397 85.4416 476.2L84.238 475.755L84.1672 483.353L84.12 490.951L84.9224 491.868ZM62.054 489.274C57.4284 490.925 54.5256 493.728 52.5432 498.418C50.254 503.92 50.3484 511.754 52.7792 517.256C55.3516 523.072 62.1956 530.775 74.444 541.648C77.63 544.477 81.5712 548.224 83.1996 549.979C84.8516 551.761 86.244 553.202 86.3148 553.202C86.3856 553.202 86.6452 552.521 86.8576 551.682C87.188 550.582 87.2824 549.298 87.306 546.783C87.306 542.853 86.9048 540.993 85.6776 539.421C85.064 538.635 84.6864 538.425 83.3412 538.111C75.9072 536.408 65.5232 527.84 60.6144 519.404C57.452 513.954 55.918 508.4 56.4844 504.496C57.4048 498.182 62.9744 493.702 69.96 493.623C72.0604 493.597 72.3436 493.676 73.7832 494.462C76.1196 495.745 77.63 497.684 79.4236 501.771C81.0992 505.623 82.1612 507.352 83.4828 508.426C84.8988 509.579 85.182 509.448 85.772 507.483C87.07 503.134 86.6924 497.658 84.828 494.042C84.2852 492.994 83.9784 492.68 83.5536 492.68C83.2468 492.68 81.996 492.104 80.7924 491.396C76.7804 489.064 74.09 488.462 68.072 488.593C64.3196 488.671 63.47 488.776 62.054 489.274ZM66.656 495.457C65.8064 495.667 64.3668 496.243 63.4464 496.741C56.272 500.566 55.8 508.714 62.1012 519.247C63.9184 522.312 68.308 527.316 71.258 529.753C75.152 532.976 80.4384 536.041 83.0344 536.591L83.9548 536.775L83.8132 534.443C83.7188 533.159 83.5772 527.212 83.5064 521.238L83.3412 510.365L81.6656 508.4C80.7216 507.3 79.7304 505.885 79.4708 505.256C77.63 500.854 77.1816 499.911 76.2376 498.549C74.4676 495.981 72.8392 495.064 69.96 495.064C68.9924 495.038 67.5056 495.221 66.656 495.457Z" fill="black"/>
</g>
</g>
<g id="mug2">
<g id="Group_2">
<path id="Vector_2" d="M913.152 468.733C897.6 469.65 889.953 470.934 888.042 472.899L887.428 473.528V519.666C887.428 570.808 887.286 566.564 889.033 568.084C892.148 570.835 896.939 572.276 906.544 573.35C920.421 574.922 935.643 574.712 945.673 572.826C950.723 571.883 957.85 569.394 958.7 568.267C958.865 568.057 959.054 565.228 959.219 560.748L959.479 553.595L961.744 551.027C962.995 549.613 966.346 546.364 969.202 543.822C976.542 537.325 980.27 533.709 984.07 529.491C992.377 520.269 994.572 515.264 994.265 506.33C994.053 500.252 992.637 496.296 989.262 492.523C987.681 490.741 987.02 490.191 985.132 489.195C981.97 487.519 979.964 487.073 975.338 487.073C969.721 487.099 965.072 488.226 962.24 490.322L961.178 491.108L961.06 482.305L960.942 473.502L960.21 472.794C958.676 471.248 952.352 469.991 941.59 469.1C938.428 468.812 916.338 468.55 913.152 468.733ZM942.18 471.17C949.024 471.72 954.24 472.532 955.986 473.318L956.694 473.606L955.868 473.999C950.582 476.488 920.35 477.484 902.579 475.781C897.906 475.309 893.375 474.523 892.455 473.973C891.865 473.633 891.841 473.606 892.29 473.344C893.894 472.375 902.272 471.353 912.68 470.829C916.291 470.646 938.876 470.908 942.18 471.17ZM891.133 473.475C891.062 474.445 892.077 475.047 894.909 475.624C900.55 476.829 906.497 477.248 920.468 477.405C936.492 477.589 947.396 477.012 953.602 475.624C956.93 474.864 958.016 474.13 957.26 473.109C956.977 472.742 957.001 472.716 957.52 472.899C957.85 473.004 958.488 473.292 958.912 473.554L959.738 473.999L958.96 474.445C956.977 475.598 951.266 476.646 942.888 477.405C936.469 477.982 913.412 478.06 907.252 477.536C896.372 476.619 888.986 475.152 889.033 473.947C889.033 473.764 890.307 473.056 891.133 472.794C891.157 472.768 891.157 473.082 891.133 473.475ZM959.078 491.868C957.166 494.042 956.222 497.448 956.246 501.981C956.246 505.125 956.411 506.199 957.331 508.976C957.756 510.339 957.898 510.496 958.629 510.653L959.455 510.837L959.314 516.627C959.243 519.797 959.101 525.64 959.03 529.596L958.865 536.801L957.756 538.006C955.821 540.102 954.9 544.294 955.372 548.722C955.844 552.94 956.647 554.905 957.756 554.591C958.275 554.433 958.275 554.46 958.134 557.027C958.063 558.442 957.921 561.35 957.85 563.472L957.709 567.298L956.128 568.11C947.986 572.249 932.386 573.874 913.506 572.564C900.007 571.621 892.856 569.891 889.67 566.8L888.844 565.988V520.924C888.844 478.637 888.868 475.86 889.245 476.017C891.298 476.908 895.948 477.798 901.352 478.375C921.129 480.497 950.251 479.397 958.558 476.2L959.762 475.755L959.833 483.353L959.88 490.951L959.078 491.868ZM981.946 489.274C986.572 490.925 989.474 493.728 991.457 498.418C993.746 503.92 993.652 511.754 991.221 517.256C988.648 523.072 981.804 530.775 969.556 541.648C966.37 544.477 962.429 548.224 960.8 549.979C959.148 551.761 957.756 553.202 957.685 553.202C957.614 553.202 957.355 552.521 957.142 551.682C956.812 550.582 956.718 549.298 956.694 546.783C956.694 542.853 957.095 540.993 958.322 539.421C958.936 538.635 959.314 538.425 960.659 538.111C968.093 536.408 978.477 527.84 983.386 519.404C986.548 513.954 988.082 508.4 987.516 504.496C986.595 498.182 981.026 493.702 974.04 493.623C971.94 493.597 971.656 493.676 970.217 494.462C967.88 495.745 966.37 497.684 964.576 501.771C962.901 505.623 961.839 507.352 960.517 508.426C959.101 509.579 958.818 509.448 958.228 507.483C956.93 503.134 957.308 497.658 959.172 494.042C959.715 492.994 960.022 492.68 960.446 492.68C960.753 492.68 962.004 492.104 963.208 491.396C967.22 489.064 969.91 488.462 975.928 488.593C979.68 488.671 980.53 488.776 981.946 489.274ZM977.344 495.457C978.194 495.667 979.633 496.243 980.554 496.741C987.728 500.566 988.2 508.714 981.899 519.247C980.082 522.312 975.692 527.316 972.742 529.753C968.848 532.976 963.562 536.041 960.966 536.591L960.045 536.775L960.187 534.443C960.281 533.159 960.423 527.212 960.494 521.238L960.659 510.365L962.334 508.4C963.278 507.3 964.27 505.885 964.529 505.256C966.37 500.854 966.818 499.911 967.762 498.549C969.532 495.981 971.161 495.064 974.04 495.064C975.008 495.038 976.494 495.221 977.344 495.457Z" fill="black"/>
</g>
</g>
<path id="Center of Mug" d="M448.531 493.156C445.49 493.156 443.24 492.354 441.781 490.75C440.323 489.146 439.594 486.651 439.594 483.266C439.594 476.672 442.589 473.375 448.578 473.375C449.453 473.375 450.302 473.469 451.125 473.656C451.948 473.833 452.615 474.057 453.125 474.328C453.635 474.599 453.891 474.859 453.891 475.109C453.891 475.266 453.833 475.474 453.719 475.734C453.615 475.995 453.49 476.224 453.344 476.422C453.198 476.62 453.068 476.719 452.953 476.719C452.901 476.719 452.755 476.651 452.516 476.516C451.974 476.224 451.406 475.979 450.812 475.781C450.219 475.583 449.495 475.484 448.641 475.484C446.401 475.484 444.75 476.109 443.688 477.359C442.635 478.599 442.109 480.578 442.109 483.297C442.109 485.953 442.63 487.911 443.672 489.172C444.724 490.422 446.344 491.047 448.531 491.047C449.448 491.047 450.234 490.938 450.891 490.719C451.547 490.5 452.177 490.229 452.781 489.906C453.073 489.75 453.25 489.672 453.312 489.672C453.427 489.672 453.557 489.771 453.703 489.969C453.859 490.167 453.995 490.391 454.109 490.641C454.224 490.88 454.281 491.052 454.281 491.156C454.281 491.417 454.016 491.708 453.484 492.031C452.964 492.344 452.26 492.609 451.375 492.828C450.5 493.047 449.552 493.156 448.531 493.156ZM463.562 493.156C461.26 493.156 459.547 492.557 458.422 491.359C457.307 490.151 456.75 488.307 456.75 485.828C456.75 483.37 457.297 481.505 458.391 480.234C459.484 478.953 461.094 478.312 463.219 478.312C465.115 478.312 466.542 478.927 467.5 480.156C468.469 481.385 468.953 483.188 468.953 485.562C468.953 485.667 468.896 485.812 468.781 486C468.677 486.177 468.547 486.339 468.391 486.484C468.245 486.62 468.12 486.688 468.016 486.688H459.25C459.365 488.24 459.76 489.375 460.438 490.094C461.125 490.802 462.156 491.156 463.531 491.156C464.302 491.156 464.964 491.062 465.516 490.875C466.078 490.688 466.62 490.458 467.141 490.188C467.193 490.167 467.271 490.13 467.375 490.078C467.479 490.026 467.552 490 467.594 490C467.708 490 467.839 490.094 467.984 490.281C468.141 490.458 468.271 490.661 468.375 490.891C468.49 491.109 468.547 491.271 468.547 491.375C468.547 491.604 468.318 491.859 467.859 492.141C467.401 492.422 466.786 492.661 466.016 492.859C465.255 493.057 464.438 493.156 463.562 493.156ZM466.469 484.688C466.469 481.771 465.359 480.312 463.141 480.312C460.755 480.312 459.458 481.771 459.25 484.688H466.469ZM473.734 493.047C473.339 493.047 473.052 493 472.875 492.906C472.698 492.802 472.609 492.646 472.609 492.438V482.688C472.609 481.479 472.552 480.609 472.438 480.078C472.323 479.536 472.266 479.24 472.266 479.188C472.266 478.958 472.438 478.797 472.781 478.703C473.135 478.599 473.469 478.547 473.781 478.547C474.042 478.547 474.234 478.688 474.359 478.969C474.484 479.25 474.573 479.536 474.625 479.828C474.688 480.12 474.729 480.307 474.75 480.391C475.333 479.734 476.005 479.224 476.766 478.859C477.536 478.495 478.312 478.312 479.094 478.312C480.51 478.312 481.615 478.714 482.406 479.516C483.208 480.307 483.609 481.401 483.609 482.797V492.438C483.609 492.646 483.521 492.802 483.344 492.906C483.167 493 482.885 493.047 482.5 493.047H482.375C482 493.047 481.724 493 481.547 492.906C481.37 492.802 481.281 492.646 481.281 492.438V483.031C481.281 482.177 481.031 481.516 480.531 481.047C480.042 480.568 479.349 480.328 478.453 480.328C477.828 480.328 477.198 480.505 476.562 480.859C475.938 481.203 475.396 481.677 474.938 482.281V492.438C474.938 492.646 474.849 492.802 474.672 492.906C474.495 493 474.219 493.047 473.844 493.047H473.734ZM492.25 493.156C491.323 493.156 490.495 492.875 489.766 492.312C489.036 491.75 488.672 490.755 488.672 489.328V480.469H487.281C487.083 480.469 486.938 480.406 486.844 480.281C486.76 480.146 486.719 479.932 486.719 479.641V479.297C486.719 479.005 486.76 478.797 486.844 478.672C486.938 478.536 487.083 478.469 487.281 478.469H488.672L489 475.562C489.021 475.156 489.318 474.953 489.891 474.953H490.156C490.448 474.953 490.661 475.005 490.797 475.109C490.932 475.203 491 475.354 491 475.562V478.469H493.328C493.526 478.469 493.667 478.536 493.75 478.672C493.844 478.797 493.891 479.005 493.891 479.297V479.641C493.891 479.932 493.844 480.146 493.75 480.281C493.667 480.406 493.526 480.469 493.328 480.469H491V489.109C491 489.87 491.13 490.401 491.391 490.703C491.661 491.005 492.026 491.156 492.484 491.156C492.839 491.156 493.109 491.135 493.297 491.094C493.495 491.052 493.625 491.031 493.688 491.031C493.854 491.031 493.99 491.198 494.094 491.531C494.208 491.865 494.266 492.13 494.266 492.328C494.266 492.88 493.594 493.156 492.25 493.156ZM503.562 493.156C501.26 493.156 499.547 492.557 498.422 491.359C497.307 490.151 496.75 488.307 496.75 485.828C496.75 483.37 497.297 481.505 498.391 480.234C499.484 478.953 501.094 478.312 503.219 478.312C505.115 478.312 506.542 478.927 507.5 480.156C508.469 481.385 508.953 483.188 508.953 485.562C508.953 485.667 508.896 485.812 508.781 486C508.677 486.177 508.547 486.339 508.391 486.484C508.245 486.62 508.12 486.688 508.016 486.688H499.25C499.365 488.24 499.76 489.375 500.438 490.094C501.125 490.802 502.156 491.156 503.531 491.156C504.302 491.156 504.964 491.062 505.516 490.875C506.078 490.688 506.62 490.458 507.141 490.188C507.193 490.167 507.271 490.13 507.375 490.078C507.479 490.026 507.552 490 507.594 490C507.708 490 507.839 490.094 507.984 490.281C508.141 490.458 508.271 490.661 508.375 490.891C508.49 491.109 508.547 491.271 508.547 491.375C508.547 491.604 508.318 491.859 507.859 492.141C507.401 492.422 506.786 492.661 506.016 492.859C505.255 493.057 504.438 493.156 503.562 493.156ZM506.469 484.688C506.469 481.771 505.359 480.312 503.141 480.312C500.755 480.312 499.458 481.771 499.25 484.688H506.469ZM513.844 493.047C513.448 493.047 513.161 493 512.984 492.906C512.807 492.802 512.719 492.646 512.719 492.438V482.688C512.719 481.479 512.661 480.609 512.547 480.078C512.432 479.536 512.375 479.24 512.375 479.188C512.375 478.958 512.547 478.797 512.891 478.703C513.245 478.599 513.578 478.547 513.891 478.547C514.141 478.547 514.328 478.682 514.453 478.953C514.578 479.214 514.688 479.583 514.781 480.062L514.859 480.391C515.849 479.005 516.922 478.312 518.078 478.312C518.609 478.312 519.01 478.411 519.281 478.609C519.552 478.797 519.688 479.052 519.688 479.375C519.688 479.688 519.63 480.021 519.516 480.375C519.411 480.719 519.286 480.891 519.141 480.891C519.068 480.891 518.938 480.859 518.75 480.797C518.583 480.724 518.417 480.672 518.25 480.641C518.083 480.599 517.87 480.578 517.609 480.578C517.182 480.578 516.776 480.703 516.391 480.953C516.016 481.203 515.698 481.479 515.438 481.781C515.177 482.083 515.047 482.25 515.047 482.281V492.438C515.047 492.646 514.958 492.802 514.781 492.906C514.604 493 514.328 493.047 513.953 493.047H513.844ZM535.031 493.156C532.938 493.156 531.339 492.531 530.234 491.281C529.141 490.021 528.594 488.193 528.594 485.797C528.594 483.401 529.151 481.557 530.266 480.266C531.38 478.964 532.969 478.312 535.031 478.312C537.073 478.312 538.635 478.958 539.719 480.25C540.802 481.531 541.344 483.38 541.344 485.797C541.344 488.203 540.807 490.031 539.734 491.281C538.672 492.531 537.104 493.156 535.031 493.156ZM534.953 491.156C536.307 491.156 537.307 490.719 537.953 489.844C538.599 488.958 538.922 487.594 538.922 485.75C538.922 483.896 538.599 482.526 537.953 481.641C537.307 480.755 536.307 480.312 534.953 480.312C533.609 480.312 532.62 480.755 531.984 481.641C531.349 482.516 531.031 483.885 531.031 485.75C531.031 487.604 531.344 488.969 531.969 489.844C532.604 490.719 533.599 491.156 534.953 491.156ZM546.984 493.047C546.599 493.047 546.318 493 546.141 492.906C545.964 492.802 545.875 492.646 545.875 492.438V480.469H544.766C544.391 480.469 544.203 480.193 544.203 479.641V479.297C544.203 478.745 544.391 478.469 544.766 478.469H545.875V475.828C545.875 474.37 546.234 473.37 546.953 472.828C547.682 472.276 548.516 472 549.453 472C550.807 472 551.484 472.281 551.484 472.844C551.484 472.938 551.458 473.094 551.406 473.312C551.365 473.521 551.297 473.708 551.203 473.875C551.12 474.042 551.021 474.125 550.906 474.125C550.844 474.125 550.714 474.104 550.516 474.062C550.318 474.021 550.047 474 549.703 474C549.391 474 549.125 474.047 548.906 474.141C548.698 474.234 548.526 474.432 548.391 474.734C548.266 475.036 548.203 475.474 548.203 476.047V478.469H550.625C550.823 478.469 550.964 478.536 551.047 478.672C551.141 478.797 551.188 479.005 551.188 479.297V479.641C551.188 479.932 551.141 480.146 551.047 480.281C550.964 480.406 550.823 480.469 550.625 480.469H548.203V492.438C548.203 492.646 548.115 492.802 547.938 492.906C547.76 493 547.484 493.047 547.109 493.047H546.984ZM562.219 493.047C561.823 493.047 561.536 493 561.359 492.906C561.182 492.802 561.094 492.646 561.094 492.438V474.109C561.094 473.693 561.469 473.484 562.219 473.484H563.203C563.818 473.484 564.208 473.656 564.375 474L569.625 483.109L570.344 484.859L571.062 483.266L576.328 474C576.505 473.656 576.891 473.484 577.484 473.484H578.406C579.146 473.484 579.516 473.693 579.516 474.109V492.438C579.516 492.844 579.146 493.047 578.406 493.047H578.219C577.823 493.047 577.536 493 577.359 492.906C577.182 492.802 577.094 492.646 577.094 492.438V477.484L577.047 477.609L571.516 487.219C571.443 487.344 571.359 487.438 571.266 487.5C571.172 487.552 571.052 487.578 570.906 487.578H569.797C569.516 487.578 569.307 487.458 569.172 487.219L563.516 477.328V492.438C563.516 492.844 563.146 493.047 562.406 493.047H562.219ZM588.609 493.156C587.193 493.156 586.083 492.76 585.281 491.969C584.479 491.167 584.078 490.062 584.078 488.656V479.031C584.078 478.625 584.453 478.422 585.203 478.422H585.312C586.052 478.422 586.422 478.625 586.422 479.031V488.438C586.422 489.292 586.667 489.958 587.156 490.438C587.656 490.906 588.354 491.141 589.25 491.141C589.875 491.141 590.5 490.969 591.125 490.625C591.75 490.271 592.292 489.792 592.75 489.188V479.031C592.75 478.625 593.12 478.422 593.859 478.422H593.969C594.719 478.422 595.094 478.625 595.094 479.031V488.891C595.094 490.099 595.146 490.974 595.25 491.516C595.354 492.047 595.406 492.339 595.406 492.391C595.406 492.62 595.234 492.786 594.891 492.891C594.547 492.984 594.224 493.031 593.922 493.031C593.661 493.031 593.469 492.885 593.344 492.594C593.219 492.292 593.125 491.984 593.062 491.672C593.01 491.359 592.974 491.161 592.953 491.078C592.37 491.734 591.693 492.245 590.922 492.609C590.161 492.974 589.391 493.156 588.609 493.156ZM604.5 498.891C602.729 498.891 601.328 498.615 600.297 498.062C599.266 497.51 598.75 496.641 598.75 495.453C598.75 494.641 598.984 493.932 599.453 493.328C599.922 492.724 600.531 492.271 601.281 491.969L601.312 491.906C600.948 491.625 600.667 491.302 600.469 490.938C600.281 490.573 600.188 490.141 600.188 489.641C600.188 488.432 600.708 487.464 601.75 486.734C600.969 486.359 600.375 485.833 599.969 485.156C599.562 484.469 599.359 483.698 599.359 482.844C599.359 481.99 599.568 481.219 599.984 480.531C600.411 479.844 601.036 479.302 601.859 478.906C602.682 478.51 603.672 478.312 604.828 478.312C605.443 478.312 605.99 478.365 606.469 478.469H611.516C611.714 478.469 611.854 478.536 611.938 478.672C612.031 478.797 612.078 479.005 612.078 479.297V479.641C612.078 479.932 612.031 480.146 611.938 480.281C611.854 480.406 611.714 480.469 611.516 480.469C610.818 480.469 610.172 480.443 609.578 480.391L609.547 480.438C609.786 480.771 609.964 481.146 610.078 481.562C610.203 481.969 610.266 482.396 610.266 482.844C610.266 483.698 610.052 484.469 609.625 485.156C609.208 485.844 608.589 486.385 607.766 486.781C606.953 487.177 605.964 487.375 604.797 487.375C603.922 487.406 603.26 487.568 602.812 487.859C602.375 488.151 602.156 488.63 602.156 489.297C602.156 489.786 602.312 490.161 602.625 490.422C602.948 490.682 603.349 490.865 603.828 490.969C604.307 491.073 604.974 491.172 605.828 491.266L606.641 491.359C607.505 491.474 608.229 491.63 608.812 491.828C609.396 492.026 609.875 492.354 610.25 492.812C610.635 493.271 610.828 493.901 610.828 494.703C610.828 496.047 610.292 497.078 609.219 497.797C608.146 498.526 606.573 498.891 604.5 498.891ZM604.797 485.531C605.818 485.531 606.63 485.323 607.234 484.906C607.839 484.49 608.141 483.807 608.141 482.859C608.141 481.068 607.026 480.172 604.797 480.172C602.599 480.172 601.5 481.068 601.5 482.859C601.5 483.807 601.797 484.49 602.391 484.906C602.995 485.323 603.797 485.531 604.797 485.531ZM604.797 497C606.089 497 607.047 496.828 607.672 496.484C608.297 496.151 608.609 495.641 608.609 494.953C608.609 494.505 608.443 494.156 608.109 493.906C607.776 493.667 607.365 493.495 606.875 493.391C606.396 493.297 605.76 493.208 604.969 493.125C604.427 493.062 603.979 493.005 603.625 492.953C603.281 492.901 602.964 492.828 602.672 492.734C601.443 493.255 600.828 494.01 600.828 495C600.828 496.333 602.151 497 604.797 497Z" fill="black"/>
</g>
</svg>
